<svg width="16" height="12" viewBox="0 0 16 12" fill="none" xmlns="http://www.w3.org/2000/svg">
<path d="M8.99978 0.666992H6.99978C4.49407 0.666992 3.24121 0.666992 2.40475 1.32757C2.27097 1.43323 2.14724 1.54968 2.03498 1.67559C1.56786 2.19954 1.41163 2.89709 1.35938 4.00033H14.6402C14.5879 2.89709 14.4317 2.19954 13.9646 1.67559C13.8523 1.54968 13.7286 1.43323 13.5948 1.32757C12.7584 0.666992 11.5055 0.666992 8.99978 0.666992Z" fill="white"/>
<path d="M7.33325 11.3337H6.99992C4.4942 11.3337 3.24134 11.3337 2.40489 10.6731C2.2711 10.5674 2.14738 10.451 2.03512 10.3251C1.33325 9.53781 1.33325 8.35865 1.33325 6.00033C1.33325 3.642 1.33325 2.46284 2.03512 1.67559C2.14738 1.54968 2.2711 1.43323 2.40489 1.32757C3.24134 0.666992 4.4942 0.666992 6.99992 0.666992H8.99992C11.5056 0.666992 12.7585 0.666992 13.5949 1.32757C13.7287 1.43323 13.8525 1.54968 13.9647 1.67559C14.5971 2.38488 14.6597 3.41232 14.6659 5.33366" stroke="#475467" stroke-linecap="round" stroke-linejoin="round"/>
<path d="M1.33325 4H14.6666" stroke="#475467" stroke-linejoin="round"/>
<path d="M9.33325 10.0007C9.33325 10.0007 9.99992 10.0007 10.6666 11.334C10.6666 11.334 12.7842 8.00065 14.6666 7.33398" stroke="#475467" stroke-linecap="round" stroke-linejoin="round"/>
</svg>
